<svg width="510" height="122" viewBox="0 0 510 122" fill="none" xmlns="http://www.w3.org/2000/svg">
<path d="M134.839 48.2992C129.703 49.5244 124.933 52.8165 122.415 57.5386C121.529 59.207 120.609 60.961 120.218 62.8267C119.835 64.6478 119.935 67.1988 122.062 67.3962C124.352 67.6122 126.702 67.5414 128.988 67.5861C134.913 67.709 140.846 67.7835 146.771 67.8691C150.577 67.9213 154.387 67.9548 158.193 68.0516C158.837 67.9995 159.34 67.7313 159.656 66.994C160.46 64.8601 159.57 62.3612 158.554 60.097C156.64 55.8106 153.839 52.3435 149.713 49.9936C145.374 47.5134 139.915 47.1373 135.077 48.2321C134.992 48.247 134.917 48.2694 134.831 48.2843L134.839 48.2917V48.2992ZM31.9431 22.808C27.396 24.2529 26.6773 28.8558 26.8076 33.0342C27.3588 51.1779 27.7014 69.3103 27.8801 87.4689C27.8801 89.9491 28.975 92.3995 30.919 93.9823C33.7344 96.3545 37.3653 95.9635 40.501 95.9635C47.856 95.9635 54.7604 95.2522 61.4675 92.6118C71.9395 87.3385 76.1552 75.8237 77.2128 64.793C78.1699 54.8051 78.4604 41.041 71.6937 32.889C67.2062 27.4779 62.216 23.7204 55.4792 22.3797C49.3382 21.1545 38.4639 20.8342 32.3304 22.6776L31.9468 22.7931L31.9394 22.808H31.9431ZM100.406 99.3784C98.7453 98.2389 96.8088 98.0005 94.4664 99.8588C74.7698 124.62 45.5583 119.976 15.1252 120.427C6.75725 120.427 0.0986222 115.444 0.228964 107.076C0.336962 93.8631 0.0762778 80.6501 0.0129687 67.4409C-0.0168238 60.92 -0.0019275 54.3955 0.128415 47.8821C0.288549 39.9684 0.526889 32.2038 0.295998 24.2901C0.165655 19.7133 0.0502094 14.9576 0.992397 10.4515C2.24368 4.48929 5.74058 1.63294 11.7028 1.01474C15.3636 0.631164 47.465 0.929089 62.3836 2.83581C78.6205 4.91011 91.893 17.7023 97.319 33.1087C99.4157 38.5831 100.503 44.225 101.576 49.8744C102.227 53.3043 105.274 53.4049 107.326 49.4387C119.488 25.9622 161.008 26.208 174.787 52.9133C177.759 57.7211 184.179 80.0729 176.064 81.3651C169.942 81.4731 137.103 81.1975 126.102 81.1975C117.705 81.1975 121.753 89.2043 123.492 91.5095C130.258 100.473 139.099 104.063 149.504 100.872C159.906 97.6802 156.714 90.3848 163.659 90.3848C167.35 90.2321 174.467 90.0496 176.735 91.1259C178.44 91.9452 177.837 94.4105 177.103 96.7604C167.778 122.892 130.348 129.83 110.346 111.359C108.119 109.523 102.179 100.596 100.41 99.3784H100.406Z" fill="#D1DCBD"/>
<path d="M460.579 50.5414C442.752 54.6974 440.946 85.9125 453.581 96.7682C468.537 109.72 486.022 94.3661 485.005 76.8742C485.847 62.8345 477.091 47.32 461.015 50.4669L460.579 50.5451V50.5414ZM429.04 1.26083C435.039 -0.15431 443.661 0.948012 445.675 7.47629C446.748 12.8203 445.943 18.4772 446.182 25.2289C446.42 28.3683 445.295 32.893 448.394 34.0028C450.215 34.6135 452.643 33.6416 454.412 32.8074C468.872 26.2083 488.796 30.9081 499.022 43.3725C515.527 65.4264 512.902 105.613 486.368 118.74C475.498 122.989 463.826 122.919 452.9 118.535C449.507 116.882 445.712 115.686 442.108 117.418C437.423 119.455 431.636 120.528 426.898 117.671C425.13 116.684 423.193 115.113 421.156 115.024C418.437 114.945 416.434 117.336 414.106 118.431C410.01 120.252 403.642 119.738 399.676 117.526C397.825 116.714 395.78 116.126 393.758 116.532C389.248 117.444 385.245 120.543 380.553 121.146C370.051 122.93 357.158 120.449 349.84 112.227C345.278 106.73 342.798 99.5128 342.47 92.3998C341.673 76.2486 342.247 59.3376 342.232 42.9666C342.109 33.8725 348.004 31.9285 356.331 32.435C365.924 33.0234 365.571 43.1901 365.664 50.3328C365.772 58.846 365.619 67.3555 365.556 75.8687C365.533 79.0379 365.47 82.222 365.608 85.3911C365.731 92.1354 369.09 100.671 376.828 101.043C385.714 102.581 394.581 95.9004 394.924 86.8063C396.767 71.6345 393.624 53.219 396.447 38.2817C399.791 30.0143 411.764 30.3979 417.842 35.1498C426.247 38.5648 419.771 12.1388 422.62 8.20621C423.569 5.26048 425.636 2.38922 428.63 1.3949L429.029 1.27945L429.036 1.26456L429.04 1.26083Z" fill="#D1DCBD"/>
<path d="M293.007 38.828C291.614 37.0815 290.993 34.8694 290.076 32.8658C286.945 26.021 280.256 20.9414 273.098 18.9118C255.722 14.0034 238.643 25.6635 234.059 42.3212C227.814 62.5131 232.484 94.365 255.931 100.912C269.572 105.511 285.652 98.4913 290.523 84.3696C292.14 80.2508 291.823 75.9123 294.642 73.4246C295.905 72.3074 298.958 72.4228 300.515 72.4079C303.606 72.3856 306.701 72.6463 309.792 72.5755C315.609 72.4526 314.86 79.4203 313.765 83.4312C311.829 91.9816 307.572 99.9287 301.532 106.014C291.16 116.464 276.338 121.331 261.774 120.288C247.391 119.257 233.381 112.665 223.922 101.701C212.318 88.2538 208.285 67.8459 210.679 50.5365C212.739 35.6477 219.978 21.4255 231.668 11.8174C243.447 2.13485 258.82 -1.72327 273.817 0.708539C280.867 1.85555 287.663 4.26874 294.009 7.51985C302.291 12.4356 309.784 20.4275 312.443 30.1622C313.177 32.985 314.532 36.1542 312.979 38.8429C311.218 41.8818 306.98 41.6658 303.963 41.4461C300.541 41.2003 295.919 41.6062 293.268 39.0738L293.007 38.828Z" fill="#D1DCBD"/>
<path d="M318.383 3.60996C321.001 1.27498 324.245 2.29164 327.827 2.04958C333.063 1.73676 337.16 2.35495 337.864 8.27249C338.322 20.398 338.068 32.531 338.184 44.6566C338.381 65.2395 339.837 85.8298 339.417 106.424C339.286 112.799 337.059 119.544 329.533 119.123C325.76 118.892 320.815 119.443 318.402 116.665C316.826 115.049 316.488 112.286 316.45 109.936C316.137 90.1162 316.812 70.3452 317.095 50.5331C317.262 38.631 316.964 26.7178 317.028 14.8082C317.042 12.4062 317.02 10.0005 317.087 7.60588C317.132 6.11998 317.471 4.82028 318.152 3.90044L318.383 3.60996Z" fill="#D1DCBD"/>
</svg>
